<svg width="130" height="37" viewBox="0 0 130 37" fill="none" xmlns="http://www.w3.org/2000/svg">
<path d="M37 37H0V0H37V37ZM7.4 7.4V12.5756L25.0298 29.6H29.6V24.4596L11.934 7.4H7.4ZM7.4 19.7765V29.6H17.5713L7.4 19.7765ZM19.3913 7.4L29.6 17.2579V7.4H19.3913Z" fill="#7F64EE"/>
<path d="M53.82 22.16V16.44H57.186C59.6353 16.44 60.86 17.3933 60.86 19.3C60.86 21.2067 59.6353 22.16 57.186 22.16H53.82ZM48.1 11.6V27H57.186C60.31 27 62.6713 26.318 64.27 24.954C65.81 23.6487 66.58 21.764 66.58 19.3C66.58 16.836 65.81 14.9513 64.27 13.646C62.6713 12.282 60.31 11.6 57.186 11.6H48.1ZM81.4309 11.6V19.85L74.8309 11.6H68.2309V27H73.9509V18.75L80.5509 27H87.1509V11.6H81.4309ZM98.0452 21.17C99.5705 21.214 100.575 21.324 101.059 21.5C101.382 21.6173 101.543 21.8227 101.543 22.116C101.543 22.38 101.374 22.556 101.037 22.644C100.582 22.7613 99.5852 22.82 98.0452 22.82C96.4612 22.82 95.4418 22.7393 94.9872 22.578C94.5325 22.4313 94.3052 22.1087 94.3052 21.61H88.5852C88.5852 23.5167 89.2525 24.9027 90.5872 25.768C92.0685 26.736 94.5545 27.22 98.0452 27.22C101.521 27.22 104.007 26.78 105.503 25.9C106.838 25.108 107.505 23.8833 107.505 22.226C107.505 20.51 106.926 19.3073 105.767 18.618C104.432 17.826 101.858 17.3567 98.0452 17.21C96.4612 17.1513 95.4638 17.078 95.0532 16.99C94.7305 16.902 94.5692 16.7333 94.5692 16.484C94.5692 16.22 94.7305 16.044 95.0532 15.956C95.5078 15.8387 96.5052 15.78 98.0452 15.78C99.4532 15.78 100.384 15.8607 100.839 16.022C101.308 16.1687 101.543 16.4913 101.543 16.99H107.263C107.263 15.0687 106.632 13.6827 105.371 12.832C103.963 11.864 101.521 11.38 98.0452 11.38C94.5545 11.38 92.0685 11.798 90.5872 12.634C89.2525 13.3967 88.5852 14.5993 88.5852 16.242C88.5852 17.958 89.1572 19.146 90.3012 19.806C91.6358 20.598 94.2172 21.0527 98.0452 21.17ZM123.249 11.6L118.409 22.886L113.569 11.6H107.629L114.229 27H122.589L129.189 11.6H123.249Z" fill="#7F64EE"/>
</svg>
