<svg width="18" height="118" viewBox="0 0 18 118" fill="none" xmlns="http://www.w3.org/2000/svg">
<path d="M5.14685 107.425L5.70935 106.862L8.99998 110.181L12.2906 106.862L12.8531 107.425L8.99998 111.278L5.14685 107.425Z" fill="#7F64EE" stroke="#7F64EE" stroke-linejoin="round"/>
<path d="M10.17 94.66C10.0767 94.7267 9.95667 94.7567 9.81 94.75C9.66333 94.7433 9.53667 94.6567 9.43 94.49C9.36333 94.3833 9.33667 94.27 9.35 94.15C9.35667 94.03 9.41667 93.9133 9.53 93.8C9.72333 93.6067 9.87333 93.4033 9.98 93.19C10.0867 92.9767 10.14 92.71 10.14 92.39C10.1333 92.29 10.12 92.18 10.1 92.06C10.0733 91.94 10.02 91.8367 9.94 91.75C9.85333 91.6567 9.72333 91.61 9.55 91.61C9.40333 91.61 9.28667 91.66 9.2 91.76C9.11333 91.86 9.04 91.9933 8.98 92.16C8.92 92.32 8.86333 92.5 8.81 92.7C8.75 92.9067 8.68333 93.12 8.61 93.34C8.53667 93.5533 8.44333 93.75 8.33 93.93C8.21 94.11 8.05333 94.2567 7.86 94.37C7.66667 94.4833 7.42333 94.54 7.13 94.54C6.79667 94.54 6.51333 94.4467 6.28 94.26C6.04667 94.0733 5.86667 93.8333 5.74 93.54C5.61333 93.24 5.55 92.9267 5.55 92.6C5.55 92.3933 5.57667 92.1767 5.63 91.95C5.67667 91.7233 5.75667 91.5067 5.87 91.3C5.97667 91.0933 6.12 90.92 6.3 90.78C6.4 90.7067 6.52 90.6633 6.66 90.65C6.8 90.6367 6.92667 90.7 7.04 90.84C7.12 90.94 7.15667 91.0567 7.15 91.19C7.13667 91.3233 7.09 91.4333 7.01 91.52C6.86333 91.6333 6.74667 91.7867 6.66 91.98C6.57333 92.1667 6.53 92.3833 6.53 92.63C6.53 92.73 6.54333 92.84 6.57 92.96C6.59 93.0733 6.64 93.1733 6.72 93.26C6.79333 93.3467 6.91333 93.39 7.08 93.39C7.23333 93.39 7.35667 93.34 7.45 93.24C7.53667 93.14 7.61 93.0067 7.67 92.84C7.72333 92.6667 7.77667 92.4833 7.83 92.29C7.88333 92.09 7.94667 91.8867 8.02 91.68C8.09333 91.4733 8.19 91.2833 8.31 91.11C8.43 90.9367 8.58667 90.7967 8.78 90.69C8.96667 90.5833 9.20667 90.53 9.5 90.53C9.84 90.53 10.13 90.63 10.37 90.83C10.61 91.03 10.7933 91.28 10.92 91.58C11.04 91.88 11.1 92.1867 11.1 92.5C11.1 92.8933 11.0333 93.2867 10.9 93.68C10.76 94.0733 10.5167 94.4 10.17 94.66ZM5.55 83.1958C5.55 82.8158 5.59 82.4858 5.67 82.2058C5.75 81.9191 5.86333 81.6991 6.01 81.5458C6.15 81.3858 6.32 81.3058 6.52 81.3058C6.65333 81.3058 6.78 81.3458 6.9 81.4258C7.01333 81.5058 7.07 81.6224 7.07 81.7758C7.07 81.8824 7.05667 81.9724 7.03 82.0458C6.99667 82.1124 6.95667 82.1724 6.91 82.2258C6.86333 82.2791 6.82 82.3424 6.78 82.4158C6.74 82.4824 6.71 82.5858 6.69 82.7258C6.66333 82.8591 6.65 82.9591 6.65 83.0258C6.65 83.3658 6.72333 83.6558 6.87 83.8958C7.01667 84.1291 7.21667 84.3091 7.47 84.4358C7.71667 84.5624 8.00333 84.6258 8.33 84.6258C8.65 84.6258 8.93667 84.5624 9.19 84.4358C9.43667 84.3024 9.63333 84.1224 9.78 83.8958C9.92667 83.6624 10 83.3958 10 83.0958C10 82.9291 9.99 82.7858 9.97 82.6658C9.95 82.5458 9.92 82.4458 9.88 82.3658C9.82667 82.2724 9.77 82.1891 9.71 82.1158C9.65 82.0424 9.62 81.9324 9.62 81.7858C9.62 81.6124 9.67667 81.4791 9.79 81.3858C9.89667 81.2924 10.03 81.2458 10.19 81.2458C10.3567 81.2458 10.51 81.3391 10.65 81.5258C10.7833 81.7124 10.8933 81.9591 10.98 82.2658C11.06 82.5658 11.1 82.8924 11.1 83.2458C11.1 83.7724 10.98 84.2291 10.74 84.6158C10.4933 85.0024 10.16 85.3024 9.74 85.5158C9.32 85.7224 8.85 85.8258 8.33 85.8258C7.78333 85.8258 7.30333 85.7158 6.89 85.4958C6.47 85.2691 6.14333 84.9591 5.91 84.5658C5.67 84.1658 5.55 83.7091 5.55 83.1958ZM11 75.7793C11 75.9526 10.9433 76.096 10.83 76.2093C10.71 76.3226 10.5633 76.3793 10.39 76.3793H6.26C6.08667 76.3793 5.94333 76.3226 5.83 76.2093C5.71 76.096 5.65 75.9526 5.65 75.7793C5.65 75.606 5.71 75.4626 5.83 75.3493C5.94333 75.236 6.08667 75.1793 6.26 75.1793H7.2L6.53 75.2493C6.37 75.176 6.23 75.0826 6.11 74.9693C5.98333 74.8493 5.88 74.716 5.8 74.5693C5.71333 74.4226 5.65 74.266 5.61 74.0993C5.57 73.9326 5.55 73.766 5.55 73.5993C5.55 73.3993 5.60667 73.2326 5.72 73.0993C5.83333 72.9593 5.96667 72.8893 6.12 72.8893C6.34 72.8893 6.5 72.946 6.6 73.0593C6.69333 73.1726 6.74 73.296 6.74 73.4293C6.74 73.556 6.71667 73.6726 6.67 73.7793C6.62333 73.8793 6.6 73.996 6.6 74.1293C6.6 74.2493 6.63 74.3726 6.69 74.4993C6.74333 74.6193 6.83 74.7326 6.95 74.8393C7.07 74.9393 7.22 75.0226 7.4 75.0893C7.57333 75.1493 7.78 75.1793 8.02 75.1793H10.39C10.5633 75.1793 10.71 75.236 10.83 75.3493C10.9433 75.4626 11 75.606 11 75.7793ZM8.33 63.128C8.87667 63.128 9.36 63.2513 9.78 63.498C10.1933 63.738 10.5167 64.0646 10.75 64.478C10.9833 64.8846 11.1 65.3413 11.1 65.848C11.1 66.3546 10.9833 66.8146 10.75 67.228C10.5167 67.6346 10.1933 67.9613 9.78 68.208C9.36 68.448 8.87667 68.568 8.33 68.568C7.78333 68.568 7.30333 68.448 6.89 68.208C6.47 67.9613 6.14333 67.6346 5.91 67.228C5.67 66.8146 5.55 66.3546 5.55 65.848C5.55 65.3413 5.67 64.8846 5.91 64.478C6.14333 64.0646 6.47 63.738 6.89 63.498C7.30333 63.2513 7.78333 63.128 8.33 63.128ZM8.33 64.328C7.99 64.328 7.69667 64.398 7.45 64.538C7.19667 64.6713 7 64.8546 6.86 65.088C6.72 65.3146 6.65 65.568 6.65 65.848C6.65 66.128 6.72 66.3846 6.86 66.618C7 66.8446 7.19667 67.028 7.45 67.168C7.69667 67.3013 7.99 67.368 8.33 67.368C8.66333 67.368 8.95667 67.3013 9.21 67.168C9.45667 67.028 9.65 66.8446 9.79 66.618C9.93 66.3846 10 66.128 10 65.848C10 65.568 9.93 65.3146 9.79 65.088C9.65 64.8546 9.45667 64.6713 9.21 64.538C8.95667 64.398 8.66333 64.328 8.33 64.328ZM10.39 56.8254C10.5633 56.8254 10.71 56.8854 10.83 57.0054C10.9433 57.1187 11 57.2621 11 57.4354C11 57.6021 10.9433 57.7421 10.83 57.8554C10.71 57.9687 10.5633 58.0254 10.39 58.0254H4.21C4.03667 58.0254 3.89333 57.9687 3.78 57.8554C3.66 57.7354 3.6 57.5887 3.6 57.4154C3.6 57.2421 3.66 57.1021 3.78 56.9954C3.89333 56.8821 4.03667 56.8254 4.21 56.8254H10.39ZM10.39 50.1301C10.5633 50.1301 10.71 50.1901 10.83 50.3101C10.9433 50.4234 11 50.5667 11 50.7401C11 50.9067 10.9433 51.0467 10.83 51.1601C10.71 51.2734 10.5633 51.3301 10.39 51.3301H4.21C4.03667 51.3301 3.89333 51.2734 3.78 51.1601C3.66 51.0401 3.6 50.8934 3.6 50.7201C3.6 50.5467 3.66 50.4067 3.78 50.3001C3.89333 50.1867 4.03667 50.1301 4.21 50.1301H10.39ZM3.6 33.602C3.6 33.4287 3.65667 33.2854 3.77 33.172C3.88333 33.0587 4.03 33.002 4.21 33.002H10.39C10.5633 33.002 10.71 33.0587 10.83 33.172C10.9433 33.2854 11 33.4287 11 33.602C11 33.7754 10.9433 33.9187 10.83 34.032C10.71 34.1454 10.5633 34.202 10.39 34.202H9.9L9.99 33.982C10.0767 33.982 10.1833 34.0287 10.31 34.122C10.43 34.2154 10.55 34.342 10.67 34.502C10.79 34.662 10.8933 34.852 10.98 35.072C11.06 35.2854 11.1 35.5187 11.1 35.772C11.1 36.232 10.9833 36.6487 10.75 37.022C10.51 37.3954 10.1833 37.692 9.77 37.912C9.35 38.1254 8.87 38.232 8.33 38.232C7.78333 38.232 7.30333 38.1254 6.89 37.912C6.47 37.692 6.14333 37.3987 5.91 37.032C5.67 36.6654 5.55 36.2587 5.55 35.812C5.55 35.5254 5.59333 35.262 5.68 35.022C5.76667 34.782 5.87667 34.5754 6.01 34.402C6.14333 34.222 6.28 34.0854 6.42 33.992C6.55333 33.892 6.66667 33.842 6.76 33.842L6.89 34.202H4.21C4.03667 34.202 3.89333 34.1454 3.78 34.032C3.66 33.9187 3.6 33.7754 3.6 33.602ZM10 35.622C10 35.3287 9.92667 35.072 9.78 34.852C9.63333 34.632 9.43333 34.462 9.18 34.342C8.92667 34.2154 8.64333 34.152 8.33 34.152C8.01 34.152 7.72333 34.2154 7.47 34.342C7.21667 34.462 7.01667 34.632 6.87 34.852C6.72333 35.072 6.65 35.3287 6.65 35.622C6.65 35.9087 6.72333 36.162 6.87 36.382C7.01667 36.602 7.21667 36.7754 7.47 36.902C7.72333 37.022 8.01 37.082 8.33 37.082C8.64333 37.082 8.92667 37.022 9.18 36.902C9.43333 36.7754 9.63333 36.602 9.78 36.382C9.92667 36.162 10 35.9087 10 35.622ZM8.33 22.5616C8.87667 22.5616 9.36 22.6849 9.78 22.9316C10.1933 23.1716 10.5167 23.4982 10.75 23.9116C10.9833 24.3182 11.1 24.7749 11.1 25.2816C11.1 25.7882 10.9833 26.2482 10.75 26.6616C10.5167 27.0682 10.1933 27.3949 9.78 27.6416C9.36 27.8816 8.87667 28.0016 8.33 28.0016C7.78333 28.0016 7.30333 27.8816 6.89 27.6416C6.47 27.3949 6.14333 27.0682 5.91 26.6616C5.67 26.2482 5.55 25.7882 5.55 25.2816C5.55 24.7749 5.67 24.3182 5.91 23.9116C6.14333 23.4982 6.47 23.1716 6.89 22.9316C7.30333 22.6849 7.78333 22.5616 8.33 22.5616ZM8.33 23.7616C7.99 23.7616 7.69667 23.8316 7.45 23.9716C7.19667 24.1049 7 24.2882 6.86 24.5216C6.72 24.7482 6.65 25.0016 6.65 25.2816C6.65 25.5616 6.72 25.8182 6.86 26.0516C7 26.2782 7.19667 26.4616 7.45 26.6016C7.69667 26.7349 7.99 26.8016 8.33 26.8016C8.66333 26.8016 8.95667 26.7349 9.21 26.6016C9.45667 26.4616 9.65 26.2782 9.79 26.0516C9.93 25.8182 10 25.5616 10 25.2816C10 25.0016 9.93 24.7482 9.79 24.5216C9.65 24.2882 9.45667 24.1049 9.21 23.9716C8.95667 23.8316 8.66333 23.7616 8.33 23.7616ZM5.65 11.399C5.65 11.2457 5.71 11.1123 5.83 10.999C5.94333 10.8857 6.09 10.829 6.27 10.829C6.31667 10.829 6.36 10.8323 6.4 10.839C6.43333 10.8457 6.46667 10.8557 6.5 10.869L10.62 12.399C10.7533 12.4457 10.8567 12.529 10.93 12.649C10.9967 12.769 11.02 12.8957 11 13.029C10.9867 13.2557 10.86 13.4257 10.62 13.539L7.77 14.529L7.78 14.269L10.62 15.199C10.86 15.3123 10.9867 15.4823 11 15.709C11.02 15.8357 10.9967 15.9623 10.93 16.089C10.8567 16.209 10.7533 16.2923 10.62 16.339L6.5 17.869C6.42667 17.8957 6.35 17.909 6.27 17.909C6.11 17.909 5.96667 17.8557 5.84 17.749C5.71333 17.6423 5.65 17.4957 5.65 17.309C5.65 17.1823 5.68 17.069 5.74 16.969C5.8 16.869 5.89667 16.799 6.03 16.759L9.31 15.549L9.29 15.799L6.82 14.889C6.57333 14.7823 6.45 14.599 6.45 14.339C6.45 14.1923 6.48333 14.0823 6.55 14.009C6.61 13.929 6.7 13.8657 6.82 13.819L9.29 12.909L9.33 13.209L6.03 11.979C5.77667 11.899 5.65 11.7057 5.65 11.399ZM5.55 3.0232C5.55 2.52987 5.65333 2.15654 5.86 1.9032C6.06667 1.6432 6.34333 1.46654 6.69 1.3732C7.03 1.2732 7.41 1.2232 7.83 1.2232H10.39C10.5633 1.2232 10.71 1.27987 10.83 1.3932C10.9433 1.50654 11 1.64987 11 1.8232C11 1.99654 10.9433 2.13987 10.83 2.2532C10.71 2.36654 10.5633 2.4232 10.39 2.4232H7.83C7.61 2.4232 7.41333 2.4532 7.24 2.5132C7.06 2.56654 6.91667 2.66654 6.81 2.8132C6.70333 2.95987 6.65 3.16987 6.65 3.4432C6.65 3.70987 6.70333 3.93654 6.81 4.1232C6.91667 4.3032 7.06 4.4432 7.24 4.5432C7.41333 4.63654 7.61 4.6832 7.83 4.6832H10.39C10.5633 4.6832 10.71 4.73987 10.83 4.8532C10.9433 4.96654 11 5.10987 11 5.2832C11 5.45654 10.9433 5.59987 10.83 5.7132C10.71 5.82654 10.5633 5.8832 10.39 5.8832H6.26C6.08667 5.8832 5.94333 5.82654 5.83 5.7132C5.71 5.59987 5.65 5.45654 5.65 5.2832C5.65 5.10987 5.71 4.96654 5.83 4.8532C5.94333 4.73987 6.08667 4.6832 6.26 4.6832H6.69L6.66 4.8332C6.54667 4.7732 6.42667 4.68654 6.3 4.5732C6.16667 4.45987 6.04333 4.32654 5.93 4.1732C5.81667 4.01987 5.72667 3.84654 5.66 3.6532C5.58667 3.45987 5.55 3.24987 5.55 3.0232Z" fill="#808DAD"/>
</svg>
