<svg width="48" height="48" viewBox="0 0 48 48" fill="none" xmlns="http://www.w3.org/2000/svg">
<g opacity="0.15">
<circle cx="1.5" cy="1.5" r="1.5" fill="#7F64EE"/>
<circle cx="10.5" cy="1.5" r="1.5" fill="#7F64EE"/>
<circle cx="19.5" cy="1.5" r="1.5" fill="#7F64EE"/>
<circle cx="28.5" cy="1.5" r="1.5" fill="#7F64EE"/>
<circle cx="37.5" cy="1.5" r="1.5" fill="#7F64EE"/>
<circle cx="46.5" cy="1.5" r="1.5" fill="#7F64EE"/>
<circle cx="1.5" cy="10.5" r="1.5" fill="#7F64EE"/>
<circle cx="10.5" cy="10.5" r="1.5" fill="#7F64EE"/>
<circle cx="19.5" cy="10.5" r="1.5" fill="#7F64EE"/>
<circle cx="28.5" cy="10.5" r="1.5" fill="#7F64EE"/>
<circle cx="37.5" cy="10.5" r="1.5" fill="#7F64EE"/>
<circle cx="46.5" cy="10.5" r="1.5" fill="#7F64EE"/>
<circle cx="1.5" cy="19.5" r="1.5" fill="#7F64EE"/>
<circle cx="10.5" cy="19.5" r="1.5" fill="#7F64EE"/>
<circle cx="19.5" cy="19.5" r="1.5" fill="#7F64EE"/>
<circle cx="28.5" cy="19.5" r="1.5" fill="#7F64EE"/>
<circle cx="37.5" cy="19.5" r="1.5" fill="#7F64EE"/>
<circle cx="46.5" cy="19.5" r="1.5" fill="#7F64EE"/>
<circle cx="1.5" cy="28.5" r="1.5" fill="#7F64EE"/>
<circle cx="10.5" cy="28.5" r="1.5" fill="#7F64EE"/>
<circle cx="19.5" cy="28.5" r="1.5" fill="#7F64EE"/>
<circle cx="28.5" cy="28.5" r="1.5" fill="#7F64EE"/>
<circle cx="37.5" cy="28.5" r="1.5" fill="#7F64EE"/>
<circle cx="46.5" cy="28.5" r="1.5" fill="#7F64EE"/>
<circle cx="1.5" cy="37.5" r="1.5" fill="#7F64EE"/>
<circle cx="10.5" cy="37.5" r="1.5" fill="#7F64EE"/>
<circle cx="19.5" cy="37.5" r="1.5" fill="#7F64EE"/>
<circle cx="28.5" cy="37.5" r="1.5" fill="#7F64EE"/>
<circle cx="37.5" cy="37.5" r="1.5" fill="#7F64EE"/>
<circle cx="46.5" cy="37.5" r="1.5" fill="#7F64EE"/>
<circle cx="1.5" cy="46.5" r="1.5" fill="#7F64EE"/>
<circle cx="10.5" cy="46.5" r="1.5" fill="#7F64EE"/>
<circle cx="19.5" cy="46.5" r="1.5" fill="#7F64EE"/>
<circle cx="28.5" cy="46.5" r="1.5" fill="#7F64EE"/>
<circle cx="37.5" cy="46.5" r="1.5" fill="#7F64EE"/>
<circle cx="46.5" cy="46.5" r="1.5" fill="#7F64EE"/>
</g>
</svg>
