<svg id="copyright" xmlns="http://www.w3.org/2000/svg" width="78.932" height="74.874" viewBox="0 0 78.932 74.874">
  <text id="_2_0" data-name="2 0" transform="translate(24 33.296)" fill="#7d7d88" font-size="15" font-family="RobotoMono-Medium, Roboto Mono" font-weight="500"><tspan x="0" y="0">2 0</tspan></text>
  <text id="_2_1" data-name="2 1" transform="translate(24 51.296)" fill="#7d7d88" font-size="15" font-family="RobotoMono-Medium, Roboto Mono" font-weight="500"><tspan x="0" y="0">2 1</tspan></text>
  <g id="Grupo_9" data-name="Grupo 9" transform="translate(-335.672 -135.74)">
    <g id="Grupo_8" data-name="Grupo 8" transform="translate(335.672 135.74)">
      <path id="Caminho_17" data-name="Caminho 17" d="M341.226,166.338l-2.938-.169a2.727,2.727,0,0,1-2.61-3.146,2.681,2.681,0,0,1,2.848-2.819c.082,0,.127.066.132.185V161.4c.005.119-.034.189-.07.187l-.072,0a1.6,1.6,0,0,0-.184,3.2l3.033.175a1.6,1.6,0,0,0,.184-3.2c-.083,0-.139-.079-.12-.2l.106-1c.019-.118.034-.189.07-.187l.06,0a2.688,2.688,0,0,1,2.528,3.13A2.736,2.736,0,0,1,341.226,166.338Z" transform="translate(-335.672 -127.831)" fill="#7d7d88"/>
      <path id="Caminho_18" data-name="Caminho 18" d="M341.494,160.234l-2.578-.856a3.035,3.035,0,0,1,1.912-5.755l2.578.856a3.034,3.034,0,0,1-1.912,5.755Zm1.522-4.429-2.635-.875a1.651,1.651,0,1,0-1.04,3.132l2.635.876a1.651,1.651,0,1,0,1.04-3.134Z" transform="translate(-335.268 -130.013)" fill="#7d7d88"/>
      <path id="Caminho_19" data-name="Caminho 19" d="M344.51,147.609a2.384,2.384,0,0,1,.625,3.518l-1.04,1.583a.07.07,0,0,0,.02.1l2.628,1.727a.175.175,0,0,1,.056.263l-.551.836a.175.175,0,0,1-.263.056l-6.661-4.378a.174.174,0,0,1-.054-.263l1.773-2.7A2.372,2.372,0,0,1,344.51,147.609Zm-.729,1.174a1.266,1.266,0,0,0-1.854.392l-.969,1.473a.069.069,0,0,0,.021.1l2.08,1.367a.068.068,0,0,0,.1-.02l.969-1.473A1.251,1.251,0,0,0,343.781,148.783Z" transform="translate(-334.52 -132.05)" fill="#7d7d88"/>
      <path id="Caminho_20" data-name="Caminho 20" d="M350.46,150.072l-2.108-2.316a.218.218,0,0,0-.074-.045l-4.936-1.85c-.142-.048-.161-.159-.056-.255l.8-.729a.234.234,0,0,1,.263-.046l3.412,1.323c.049.019.085-.013.07-.065l-.99-3.527a.233.233,0,0,1,.071-.258l.81-.738c.106-.1.213-.066.249.079l1.363,5.1a.284.284,0,0,0,.038.078l2.108,2.315a.177.177,0,0,1-.012.27l-.74.674A.176.176,0,0,1,350.46,150.072Z" transform="translate(-333.231 -133.874)" fill="#7d7d88"/>
      <path id="Caminho_21" data-name="Caminho 21" d="M356.818,145.527l-2.96-2.3a.079.079,0,0,0-.1,0l-1.236.646a.067.067,0,0,0-.029.1l1.543,2.958a.174.174,0,0,1-.082.257l-.885.463a.175.175,0,0,1-.258-.081l-3.688-7.065a.176.176,0,0,1,.081-.257l2.862-1.494a2.317,2.317,0,0,1,3.311,1.014,2.154,2.154,0,0,1-.39,2.676.06.06,0,0,0,.012.1l3.034,2.26c.112.089.1.2-.022.266l-.929.486A.218.218,0,0,1,356.818,145.527Zm-5.97-4.719,1.087,2.08a.062.062,0,0,0,.1.03l1.573-.822a1.188,1.188,0,0,0,.562-1.677,1.2,1.2,0,0,0-1.714-.529l-1.573.82A.063.063,0,0,0,350.848,140.808Z" transform="translate(-331.329 -134.874)" fill="#7d7d88"/>
      <path id="Caminho_22" data-name="Caminho 22" d="M357.79,144.9l-2.239-7.635a.176.176,0,0,1,.13-.237l.961-.282a.174.174,0,0,1,.236.13l2.239,7.635a.175.175,0,0,1-.128.237l-.961.282A.177.177,0,0,1,357.79,144.9Z" transform="translate(-329.246 -135.419)" fill="#7d7d88"/>
      <path id="Caminho_23" data-name="Caminho 23" d="M359.551,141.72l-.274-2.869a2.742,2.742,0,0,1,2.708-3.093,2.7,2.7,0,0,1,3.2,2.338l.005.048a.175.175,0,0,1-.172.206l-.983.1c-.119.011-.195-.03-.2-.089l-.009-.1a1.466,1.466,0,0,0-1.728-1.318,1.507,1.507,0,0,0-1.45,1.73l.282,2.963a1.549,1.549,0,0,0,1.81,1.417,1.364,1.364,0,0,0,1.4-1.544l-.069-.723a.064.064,0,0,0-.078-.065l-1.4.134a.175.175,0,0,1-.208-.171l-.075-.783a.176.176,0,0,1,.172-.208l2.643-.251a.176.176,0,0,1,.209.171l.14,1.47a2.7,2.7,0,0,1-2.677,3.162A2.747,2.747,0,0,1,359.551,141.72Z" transform="translate(-328.043 -135.74)" fill="#7d7d88"/>
      <path id="Caminho_24" data-name="Caminho 24" d="M371.557,136.5l.987.165a.176.176,0,0,1,.156.22l-1.322,7.852a.175.175,0,0,1-.22.156l-.987-.167a.175.175,0,0,1-.156-.22l.556-3.3a.067.067,0,0,0-.058-.082l-2.974-.5a.063.063,0,0,0-.082.06l-.557,3.3a.175.175,0,0,1-.22.156l-.986-.165a.175.175,0,0,1-.156-.22l1.321-7.852a.176.176,0,0,1,.22-.156l.987.167a.174.174,0,0,1,.156.22l-.544,3.232a.063.063,0,0,0,.06.082l2.972.5a.063.063,0,0,0,.083-.058l.544-3.232A.175.175,0,0,1,371.557,136.5Z" transform="translate(-326.015 -135.739)" fill="#7d7d88"/>
      <path id="Caminho_25" data-name="Caminho 25" d="M379.442,139.99l-.341.746a.175.175,0,0,1-.253.094l-1.937-.885a.063.063,0,0,0-.094.036l-2.856,6.245a.173.173,0,0,1-.251.094l-.909-.416a.175.175,0,0,1-.094-.251l2.855-6.246a.069.069,0,0,0-.034-.094l-1.862-.851a.175.175,0,0,1-.094-.253l.34-.746a.175.175,0,0,1,.253-.094l5.185,2.369A.176.176,0,0,1,379.442,139.99Z" transform="translate(-323.703 -135.221)" fill="#7d7d88"/>
      <path id="Caminho_26" data-name="Caminho 26" d="M377.877,147.84l.543-.566a.276.276,0,0,1,.226-.1c1.4-.081,2.733-.236,3.977-.347a3.685,3.685,0,0,0,2.127-.637,1.238,1.238,0,0,0-1.8-1.687l-.181.189a.176.176,0,0,1-.27.005l-.731-.7a.176.176,0,0,1-.007-.27l.322-.335a2.67,2.67,0,0,1,3.687,3.745,3.77,3.77,0,0,1-2.307.909c-1.065.148-2.227.224-3.471.319-.067,0-.075.044-.032.085l2.373,2.274a.175.175,0,0,1,.007.27l-.56.585a.175.175,0,0,1-.27.005l-3.63-3.477A.175.175,0,0,1,377.877,147.84Z" transform="translate(-322.043 -133.454)" fill="#7d7d88"/>
      <path id="Caminho_27" data-name="Caminho 27" d="M383.336,149.974l2.829-1.81a2.733,2.733,0,0,1,2.942,4.6l-2.831,1.812a2.731,2.731,0,0,1-2.941-4.6Zm2.136,3.471,2.93-1.875a1.346,1.346,0,1,0-1.452-2.267l-2.93,1.875a1.252,1.252,0,0,0-.416,1.849A1.267,1.267,0,0,0,385.472,153.446Z" transform="translate(-320.666 -131.872)" fill="#7d7d88"/>
      <path id="Caminho_28" data-name="Caminho 28" d="M384.377,155.513l.745-.25a.277.277,0,0,1,.245.019c1.274.576,2.529,1.059,3.683,1.538a3.681,3.681,0,0,0,2.178.422,1.238,1.238,0,0,0-.809-2.328l-.247.083a.176.176,0,0,1-.242-.12l-.323-.959a.176.176,0,0,1,.12-.241l.441-.148a2.669,2.669,0,0,1,1.527,5.027,3.769,3.769,0,0,1-2.464-.265c-1.014-.363-2.078-.834-3.224-1.329-.06-.029-.086,0-.067.061l1.048,3.115a.176.176,0,0,1-.12.242l-.768.257a.175.175,0,0,1-.241-.119l-1.6-4.764A.176.176,0,0,1,384.377,155.513Z" transform="translate(-319.965 -130.016)" fill="#7d7d88"/>
      <path id="Caminho_30" data-name="Caminho 30" d="M390.37,168.387a4.3,4.3,0,1,1-5.361,2.84A4.15,4.15,0,0,1,390.37,168.387Zm-2.305,7.459a3.5,3.5,0,1,0-2.307-4.387A3.381,3.381,0,0,0,388.065,175.845Zm.663-4.926,1.547.476a1.273,1.273,0,0,1,.82,1.736,1.244,1.244,0,0,1-1.6.977c-.057-.017-.081-.1-.046-.213l.1-.368c.034-.114.078-.175.112-.164l.045.013a.591.591,0,0,0,.77-.434.584.584,0,0,0-.39-.793l-1.649-.511a.645.645,0,0,0-.378,1.228c.068.021.091.1.057.217l-.124.361c-.034.114-.066.177-.1.168l-.057-.019a1.257,1.257,0,0,1-.779-1.71A1.285,1.285,0,0,1,388.728,170.919Z" transform="translate(-319.787 -125.251)" fill="#7d7d88"/>
      <path id="Caminho_31" data-name="Caminho 31" d="M380.141,180.493l1.175.511a.073.073,0,0,0,.1-.025l2.017-2.381a.076.076,0,0,0,.008-.1l-.7-1.075a.2.2,0,0,1,.02-.263l.7-.827a.151.151,0,0,1,.265.021l4.432,7.091a.206.206,0,0,1-.02.265l-.9,1.063a.206.206,0,0,1-.258.064l-7.732-3.193a.15.15,0,0,1-.064-.257l.7-.827A.206.206,0,0,1,380.141,180.493Zm3.893-.932-1.57,1.854c-.03.037-.028.07.025.1l3.883,1.679c.06.021.09-.016.061-.071l-2.3-3.552C384.1,179.523,384.065,179.526,384.034,179.561Z" transform="translate(-321.617 -122.636)" fill="#7d7d88"/>
      <path id="Caminho_32" data-name="Caminho 32" d="M379.327,181.123l4.546,6.528a.174.174,0,0,1-.048.265l-.82.572a.176.176,0,0,1-.266-.048l-3.933-5.648a.068.068,0,0,0-.1-.019l-3.225,2.246a.176.176,0,0,1-.266-.048l-.462-.664a.175.175,0,0,1,.046-.265l4.263-2.968A.175.175,0,0,1,379.327,181.123Z" transform="translate(-323.047 -121.093)" fill="#7d7d88"/>
      <path id="Caminho_33" data-name="Caminho 33" d="M374.873,184.087l2.806,7.445a.174.174,0,0,1-.111.245l-.936.353a.176.176,0,0,1-.246-.111l-2.427-6.442a.07.07,0,0,0-.093-.042l-3.678,1.386a.175.175,0,0,1-.246-.111l-.286-.757a.177.177,0,0,1,.111-.246l4.861-1.83A.173.173,0,0,1,374.873,184.087Z" transform="translate(-324.687 -120.147)" fill="#7d7d88"/>
      <path id="Caminho_34" data-name="Caminho 34" d="M363.416,186.182l1.618,3.381a.082.082,0,0,0,.085.046l1.393-.024a.069.069,0,0,0,.07-.073l-.057-3.336a.175.175,0,0,1,.188-.193l1-.017a.174.174,0,0,1,.193.187l.136,7.971a.175.175,0,0,1-.188.193l-3.229.056a2.318,2.318,0,0,1-2.508-2.389,2.156,2.156,0,0,1,1.548-2.219.06.06,0,0,0,.034-.1l-1.7-3.38c-.062-.13,0-.226.139-.229l1.048-.017A.217.217,0,0,1,363.416,186.182Zm3.226,6.892-.038-2.346a.064.064,0,0,0-.074-.07l-1.775.03a1.189,1.189,0,0,0-1.255,1.249,1.2,1.2,0,0,0,1.3,1.24l1.775-.029A.064.064,0,0,0,366.642,193.074Z" transform="translate(-327.166 -119.498)" fill="#7d7d88"/>
      <path id="Caminho_35" data-name="Caminho 35" d="M361.271,185.988l-1.4,7.838a.176.176,0,0,1-.222.154l-.985-.177a.175.175,0,0,1-.155-.221l1.4-7.837a.176.176,0,0,1,.221-.154l.986.176A.176.176,0,0,1,361.271,185.988Z" transform="translate(-328.289 -119.621)" fill="#7d7d88"/>
      <path id="Caminho_36" data-name="Caminho 36" d="M359.06,188.218l-1.041,2.688a2.74,2.74,0,0,1-3.806,1.552,2.7,2.7,0,0,1-1.816-3.525l.017-.044a.176.176,0,0,1,.246-.11l.922.357c.111.044.16.114.139.169l-.034.089a1.465,1.465,0,0,0,.954,1.953,1.508,1.508,0,0,0,2.072-.9l1.075-2.778a1.546,1.546,0,0,0-.982-2.078,1.363,1.363,0,0,0-1.94.754l-.263.678a.064.064,0,0,0,.041.093l1.311.508a.175.175,0,0,1,.109.246l-.285.733a.174.174,0,0,1-.246.108l-2.476-.959a.175.175,0,0,1-.11-.246l.533-1.378a2.705,2.705,0,0,1,3.811-1.628A2.749,2.749,0,0,1,359.06,188.218Z" transform="translate(-330.322 -120.055)" fill="#7d7d88"/>
      <path id="Caminho_37" data-name="Caminho 37" d="M346.384,187.824l-.807-.592a.176.176,0,0,1-.041-.267l4.709-6.421a.174.174,0,0,1,.266-.04l.807.592a.176.176,0,0,1,.041.267l-1.98,2.7a.069.069,0,0,0,.015.1l2.432,1.783a.063.063,0,0,0,.1-.015l1.981-2.7a.175.175,0,0,1,.266-.042l.807.593a.174.174,0,0,1,.041.266l-4.707,6.421a.175.175,0,0,1-.266.041l-.809-.592a.177.177,0,0,1-.041-.267l1.939-2.643a.063.063,0,0,0-.016-.1l-2.431-1.784a.064.064,0,0,0-.1.016l-1.937,2.643A.175.175,0,0,1,346.384,187.824Z" transform="translate(-332.496 -121.279)" fill="#7d7d88"/>
      <path id="Caminho_38" data-name="Caminho 38" d="M340.643,180.639l.639-.515a.176.176,0,0,1,.269.029l1.337,1.66a.064.064,0,0,0,.1.009l5.348-4.31a.176.176,0,0,1,.269.028l.627.779a.177.177,0,0,1-.029.269l-5.348,4.31a.069.069,0,0,0-.012.1l1.286,1.595a.175.175,0,0,1-.029.267l-.639.515a.176.176,0,0,1-.269-.028l-3.578-4.44A.176.176,0,0,1,340.643,180.639Z" transform="translate(-334.089 -122.248)" fill="#7d7d88"/>
      <path id="Caminho_39" data-name="Caminho 39" d="M345.054,177.235l-.228.1a.176.176,0,0,1-.253-.1l-.4-.889a.167.167,0,0,1,.083-.247l.173-.079c.639-.29.884-1.133.431-2.131-.423-.933-1.061-1.127-1.615-.876-.63.286-.622.963-.545,2.341.107,1.39.173,2.772-1.2,3.4-1.29.586-2.524-.083-3.218-1.612-.749-1.648-.352-3.163.982-3.769l.142-.065a.175.175,0,0,1,.251.094l.4.891c.049.107.024.2-.052.233l-.119.053c-.651.3-.963,1.105-.5,2.125.364.8.918,1.1,1.526.823.662-.3.642-.92.531-2.373-.079-1.3-.191-2.753,1.2-3.383,1.269-.577,2.59.053,3.348,1.723S346.376,176.635,345.054,177.235Z" transform="translate(-334.95 -124.154)" fill="#7d7d88"/>
      <text id="_1" data-name="1" transform="translate(77.477 28.945) rotate(78)" fill="#7d7d88" font-size="11" font-family="HelveticaNeue-Medium, Helvetica Neue" font-weight="500"><tspan x="0" y="11">1</tspan></text>
    </g>
  </g>
</svg>
