<svg width="72" height="73" viewBox="0 0 72 73" fill="none" xmlns="http://www.w3.org/2000/svg">
<circle opacity="0.15" cx="52" cy="20" r="20" fill="#00FF99"/>
<path d="M10.2783 24.4414C10.8868 24.4414 11.38 23.9482 11.38 23.3398C11.38 22.7314 10.8868 22.2382 10.2783 22.2382C9.66992 22.2382 9.1767 22.7314 9.1767 23.3398C9.1767 23.9482 9.66992 24.4414 10.2783 24.4414Z" fill="#00FF99"/>
<path d="M17.6262 24.4414C18.2347 24.4414 18.7279 23.9482 18.7279 23.3398C18.7279 22.7314 18.2347 22.2382 17.6262 22.2382C17.0178 22.2382 16.5246 22.7314 16.5246 23.3398C16.5246 23.9482 17.0178 24.4414 17.6262 24.4414Z" fill="#00FF99"/>
<path d="M13.9577 24.4414C14.5661 24.4414 15.0594 23.9482 15.0594 23.3398C15.0594 22.7314 14.5661 22.2382 13.9577 22.2382C13.3493 22.2382 12.8561 22.7314 12.8561 23.3398C12.8561 23.9482 13.3493 24.4414 13.9577 24.4414Z" fill="#00FF99"/>
<path d="M22.0328 39.3246L25.3378 36.0197C25.5452 35.8122 25.6617 35.5309 25.6617 35.2375C25.6617 34.9441 25.5452 34.6628 25.3378 34.4553C25.1303 34.2479 24.849 34.1313 24.5556 34.1313C24.2622 34.1313 23.9809 34.2479 23.7734 34.4553L19.6753 38.5644C19.4701 38.7709 19.355 39.0501 19.355 39.3411C19.355 39.6321 19.4701 39.9114 19.6753 40.1178L23.7734 44.2269C23.8758 44.3301 23.9977 44.4121 24.1319 44.468C24.2662 44.5239 24.4102 44.5527 24.5556 44.5527C24.701 44.5527 24.845 44.5239 24.9793 44.468C25.1135 44.4121 25.2353 44.3301 25.3378 44.2269C25.5429 44.0205 25.6581 43.7413 25.6581 43.4502C25.6581 43.1592 25.5429 42.88 25.3378 42.6736L22.0328 39.3246Z" fill="#00FF99"/>
<path d="M37.8082 44.2049C38.0146 44.4101 38.2938 44.5252 38.5849 44.5252C38.8759 44.5252 39.1551 44.4101 39.3615 44.2049L43.4706 40.1509C43.6758 39.9444 43.791 39.6652 43.791 39.3742C43.791 39.0832 43.6758 38.8039 43.4706 38.5975L39.3615 34.4884C39.1541 34.2824 38.8733 34.1673 38.581 34.1683C38.2886 34.1694 38.0087 34.2865 37.8027 34.4939C37.5967 34.7014 37.4816 34.9822 37.4826 35.2745C37.4836 35.5668 37.6008 35.8468 37.8082 36.0528L41.1131 39.3577L37.8082 42.6626C37.6064 42.8685 37.4933 43.1454 37.4933 43.4337C37.4933 43.7221 37.6064 43.999 37.8082 44.2049Z" fill="#00FF99"/>
<path d="M34.1508 34.8078C34.0251 34.735 33.8862 34.6877 33.7421 34.6688C33.5981 34.6499 33.4517 34.6596 33.3114 34.6975C33.1711 34.7354 33.0397 34.8007 32.9248 34.8896C32.8098 34.9784 32.7136 35.0892 32.6416 35.2154L28.5766 42.3541C28.4968 42.4794 28.4433 42.6197 28.4192 42.7663C28.3951 42.9129 28.4009 43.0628 28.4362 43.2072C28.4716 43.3515 28.5358 43.4871 28.6249 43.606C28.714 43.7249 28.8263 43.8245 28.9549 43.8988C29.0836 43.9732 29.2259 44.0207 29.3734 44.0387C29.5209 44.0566 29.6705 44.0445 29.8132 44.0031C29.9559 43.9617 30.0887 43.8918 30.2037 43.7978C30.3187 43.7037 30.4135 43.5873 30.4824 43.4557L34.5915 36.3501C34.6684 36.221 34.718 36.0776 34.7374 35.9286C34.7568 35.7796 34.7455 35.6283 34.7042 35.4838C34.663 35.3394 34.5926 35.2049 34.4974 35.0886C34.4022 34.9724 34.2843 34.8768 34.1508 34.8078Z" fill="#00FF99"/>
<path d="M61.5376 50.0656C61.4726 50.0651 61.4093 50.0448 61.3561 50.0074C61.303 49.97 61.2625 49.9173 61.2401 49.8563C60.8018 48.7032 60.1806 47.6282 59.4004 46.6726C59.3634 46.6192 59.3436 46.5557 59.3436 46.4908C59.3436 46.4258 59.3634 46.3624 59.4004 46.309C59.7359 45.7275 59.8269 45.0366 59.6534 44.388C59.4799 43.7394 59.0561 43.1862 58.475 42.8499L57.6488 42.3541V22.2382C57.6488 21.3617 57.3006 20.5211 56.6808 19.9013C56.061 19.2815 55.2204 18.9333 54.3439 18.9333H8.8131C7.93658 18.9333 7.09596 19.2815 6.47617 19.9013C5.85637 20.5211 5.50818 21.3617 5.50818 22.2382V50.1537C5.51108 50.8336 5.78244 51.4848 6.26319 51.9656C6.74393 52.4463 7.39513 52.7177 8.075 52.7206H23.1344L22.0328 56.7966H20.5676C19.4946 56.7974 18.4532 57.1598 17.6116 57.8255C16.77 58.4911 16.1775 59.4211 15.9297 60.4651H13.2197C12.9275 60.4651 12.6473 60.5812 12.4407 60.7878C12.2341 60.9944 12.118 61.2746 12.118 61.5667C12.118 61.8589 12.2341 62.1391 12.4407 62.3457C12.6473 62.5523 12.9275 62.6684 13.2197 62.6684H41.2784C41.2597 62.9316 41.2858 63.196 41.3555 63.4505C41.4381 63.7737 41.5851 64.0769 41.7876 64.3419C41.9902 64.6069 42.2441 64.8283 42.5343 64.9928L44.8587 66.3368C45.1473 66.5025 45.4658 66.6097 45.7958 66.6523C46.1258 66.6949 46.4611 66.6721 46.7823 66.5851C47.1035 66.4982 47.4044 66.3488 47.6679 66.1455C47.9314 65.9423 48.1523 65.6891 48.3179 65.4004C48.3536 65.3442 48.4049 65.2997 48.4656 65.2723C48.5263 65.2449 48.5936 65.2358 48.6594 65.2462C49.8696 65.4555 51.1067 65.4555 52.3168 65.2462C52.3838 65.2353 52.4526 65.2454 52.5137 65.2749C52.5748 65.3045 52.6253 65.3522 52.6583 65.4115C52.8829 65.7959 53.2048 66.1144 53.5916 66.3349C53.9784 66.5553 54.4164 66.67 54.8616 66.6673C55.3058 66.6716 55.7431 66.5575 56.1285 66.3368L58.453 64.9928C58.7416 64.8263 58.9943 64.6043 59.1966 64.3396C59.3989 64.0749 59.5468 63.7727 59.6317 63.4505C59.7195 63.1303 59.7422 62.7957 59.6987 62.4665C59.6552 62.1373 59.5463 61.8201 59.3783 61.5337C59.3405 61.4786 59.3202 61.4133 59.3202 61.3464C59.3202 61.2795 59.3405 61.2142 59.3783 61.1591C60.1561 60.2059 60.7771 59.1349 61.2181 57.9864C61.2391 57.9245 61.2792 57.8709 61.3327 57.8332C61.3861 57.7956 61.4502 57.776 61.5155 57.7771C62.1866 57.7742 62.8294 57.5063 63.304 57.0318C63.7785 56.5572 64.0464 55.9144 64.0493 55.2433V52.5553C64.0378 51.8948 63.7688 51.2648 63.2996 50.7998C62.8304 50.3347 62.1982 50.0713 61.5376 50.0656ZM7.71146 22.2382C7.71146 21.946 7.82752 21.6658 8.03412 21.4592C8.24072 21.2526 8.52092 21.1366 8.8131 21.1366H54.3439C54.636 21.1366 54.9162 21.2526 55.1228 21.4592C55.3294 21.6658 55.4455 21.946 55.4455 22.2382V25.5431H7.71146V22.2382ZM8.075 50.5173C8.02726 50.5173 7.97998 50.5079 7.93588 50.4896C7.89177 50.4713 7.85169 50.4446 7.81794 50.4108C7.78418 50.3771 7.7574 50.337 7.73913 50.2929C7.72086 50.2488 7.71146 50.2015 7.71146 50.1537V27.7464H55.4455V41.2525C54.9242 41.114 54.3722 41.1463 53.8706 41.3446C53.369 41.5429 52.9441 41.8967 52.6583 42.3541C52.624 42.4085 52.5742 42.4512 52.5152 42.4768C52.4562 42.5023 52.391 42.5095 52.3279 42.4974C51.1168 42.299 49.8815 42.299 48.6704 42.4974C48.6073 42.5111 48.5414 42.5047 48.4821 42.479C48.4228 42.4533 48.3731 42.4096 48.3399 42.3541C48.1744 42.0653 47.9534 41.8121 47.6897 41.6091C47.4259 41.4061 47.1245 41.2573 46.803 41.1713C46.4814 41.0853 46.1461 41.0638 45.8162 41.1079C45.4863 41.1521 45.1684 41.2612 44.8808 41.4288L42.5563 42.7728C42.2669 42.9356 42.0134 43.1551 41.8108 43.4182C41.6083 43.6813 41.4609 43.9826 41.3776 44.304C41.2014 44.9535 41.2885 45.6463 41.6199 46.2319C41.6601 46.284 41.6819 46.3479 41.6819 46.4137C41.6819 46.4795 41.6601 46.5434 41.6199 46.5954C40.8397 47.5511 40.2185 48.6261 39.7802 49.7792C39.7578 49.8402 39.7173 49.8929 39.6642 49.9303C39.611 49.9677 39.5477 49.988 39.4827 49.9885C38.9432 49.9893 38.4181 50.163 37.9845 50.4842L8.075 50.5173ZM37.4557 56.7966H24.236L25.3377 52.7206H36.9049V55.2433C36.912 55.8077 37.1056 56.3539 37.4557 56.7966ZM20.5786 58.9999H40.1878C40.4396 59.5078 40.7267 59.9974 41.0471 60.4651H18.2541C18.4621 60.0274 18.7898 59.6575 19.1992 59.3982C19.6086 59.1389 20.083 59.0008 20.5676 58.9999H20.5786ZM61.868 55.2433C61.868 55.331 61.8332 55.415 61.7713 55.477C61.7093 55.539 61.6252 55.5738 61.5376 55.5738C61.0244 55.5751 60.5236 55.7315 60.1009 56.0224C59.6783 56.3134 59.3534 56.7253 59.169 57.2042C58.8169 58.133 58.3185 58.9996 57.6928 59.7711C57.3702 60.1696 57.1755 60.6563 57.1342 61.1674C57.0929 61.6785 57.207 62.1902 57.4615 62.6353C57.4792 62.6733 57.4884 62.7146 57.4884 62.7565C57.4884 62.7984 57.4792 62.8397 57.4615 62.8777C57.4519 62.9214 57.4332 62.9627 57.4066 62.9987C57.3801 63.0348 57.3462 63.0649 57.3073 63.087L55.0159 64.3869C54.9776 64.4082 54.9355 64.4217 54.892 64.4265C54.8484 64.4314 54.8044 64.4276 54.7624 64.4153C54.7203 64.403 54.6812 64.3825 54.6472 64.3549C54.6131 64.3273 54.5849 64.2933 54.5642 64.2547C54.3037 63.8108 53.9147 63.4562 53.4486 63.2379C52.9825 63.0196 52.4611 62.9478 51.9533 63.0319C50.9835 63.1971 49.9927 63.1971 49.0229 63.0319C48.514 62.9488 47.9918 63.0223 47.5255 63.2426C47.0593 63.463 46.671 63.8198 46.4121 64.2657C46.3663 64.3396 46.2941 64.3933 46.2102 64.4158C46.1263 64.4383 46.037 64.428 45.9604 64.3869L43.6359 63.0429C43.597 63.0208 43.5631 62.9907 43.5365 62.9547C43.51 62.9186 43.4913 62.8774 43.4817 62.8336C43.464 62.7957 43.4548 62.7543 43.4548 62.7124C43.4548 62.6706 43.464 62.6292 43.4817 62.5913C43.7332 62.1452 43.8456 61.6341 43.8044 61.1237C43.7632 60.6133 43.5702 60.1269 43.2503 59.727C42.619 58.9575 42.1167 58.0906 41.7631 57.1602C41.5784 56.6939 41.2582 56.2936 40.8439 56.0109C40.4297 55.7282 39.9402 55.5759 39.4387 55.5738C39.351 55.5738 39.267 55.539 39.205 55.477C39.143 55.415 39.1082 55.331 39.1082 55.2433V52.5553C39.1066 52.5115 39.1141 52.4678 39.1302 52.427C39.1463 52.3863 39.1706 52.3492 39.2016 52.3182C39.2326 52.2872 39.2696 52.2629 39.3104 52.2468C39.3512 52.2308 39.3949 52.2233 39.4387 52.2248C39.9503 52.2229 40.4493 52.066 40.8701 51.775C41.2909 51.484 41.6138 51.0724 41.7962 50.5944C42.1473 49.6628 42.6498 48.7955 43.2834 48.0276C43.6033 47.6277 43.7962 47.1413 43.8374 46.6309C43.8787 46.1204 43.7663 45.6094 43.5147 45.1633C43.4968 45.1235 43.4875 45.0803 43.4875 45.0366C43.4875 44.993 43.4968 44.9498 43.5147 44.9099C43.5237 44.8673 43.5422 44.8273 43.569 44.793C43.5957 44.7586 43.6299 44.7308 43.669 44.7116L45.9934 43.3676C46.0475 43.3526 46.1046 43.3526 46.1587 43.3676C46.2138 43.3683 46.2679 43.3828 46.316 43.4098C46.3641 43.4367 46.4047 43.4752 46.4341 43.5219C46.6941 43.9668 47.0826 44.3227 47.5486 44.5429C48.0145 44.7631 48.5361 44.8373 49.045 44.7557C50.0148 44.5905 51.0055 44.5905 51.9753 44.7557C52.4876 44.8249 53.0087 44.7378 53.4707 44.5059C53.9326 44.2739 54.3137 43.9079 54.5642 43.4558C54.5857 43.4194 54.6143 43.3877 54.6481 43.3625C54.682 43.3373 54.7205 43.319 54.7615 43.3087C54.8025 43.2985 54.8451 43.2965 54.8869 43.3028C54.9286 43.3091 54.9687 43.3237 55.0048 43.3456L57.3293 44.6896C57.3684 44.7088 57.4026 44.7366 57.4293 44.771C57.456 44.8053 57.4746 44.8453 57.4835 44.8879C57.5015 44.9277 57.5107 44.9709 57.5107 45.0146C57.5107 45.0583 57.5015 45.1015 57.4835 45.1413C57.23 45.5848 57.1164 46.0945 57.1577 46.6037C57.1989 47.1129 57.3932 47.5977 57.7149 47.9945C58.3408 48.7699 58.8391 49.6401 59.1911 50.5724C59.3647 51.0593 59.682 51.4821 60.1009 51.785C60.5198 52.0879 61.0207 52.2566 61.5376 52.2689C61.5814 52.2674 61.625 52.2748 61.6658 52.2909C61.7066 52.307 61.7437 52.3313 61.7747 52.3623C61.8057 52.3933 61.83 52.4303 61.846 52.4711C61.8621 52.5119 61.8696 52.5556 61.868 52.5994V55.2433Z" fill="#00FF99"/>
<path d="M50.4881 48.8978C49.4989 48.8978 48.5319 49.1912 47.7095 49.7407C46.887 50.2903 46.2459 51.0714 45.8674 51.9853C45.4888 52.8992 45.3898 53.9048 45.5828 54.875C45.7757 55.8452 46.2521 56.7364 46.9516 57.4358C47.651 58.1353 48.5422 58.6116 49.5124 58.8046C50.4826 58.9976 51.4882 58.8985 52.4021 58.52C53.316 58.1415 54.0971 57.5004 54.6467 56.6779C55.1962 55.8554 55.4895 54.8885 55.4895 53.8993C55.4895 52.5728 54.9626 51.3007 54.0247 50.3627C53.0867 49.4248 51.8146 48.8978 50.4881 48.8978ZM50.4881 56.6974C49.9347 56.6974 49.3937 56.5333 48.9335 56.2259C48.4734 55.9184 48.1147 55.4814 47.9029 54.9701C47.6912 54.4588 47.6357 53.8962 47.7437 53.3534C47.8517 52.8106 48.1182 52.312 48.5095 51.9207C48.9008 51.5293 49.3994 51.2628 49.9422 51.1549C50.485 51.0469 51.0476 51.1023 51.5589 51.3141C52.0702 51.5259 52.5072 51.8845 52.8147 52.3447C53.1222 52.8049 53.2863 53.3458 53.2863 53.8993C53.2805 54.6376 52.9831 55.3436 52.459 55.8636C51.9348 56.3836 51.2264 56.6754 50.4881 56.6754V56.6974Z" fill="#00FF99"/>
</svg>
