<svg width="152" height="24" viewBox="0 0 152 24" fill="none" xmlns="http://www.w3.org/2000/svg">
<path d="M14.656 19.96V23.152H0.568V19.96H14.656ZM17.7529 12.304C17.7529 10.96 18.0169 9.768 18.5449 8.728C19.0889 7.688 19.8249 6.888 20.7529 6.328C21.6809 5.768 22.7129 5.488 23.8489 5.488C24.7129 5.488 25.5369 5.68 26.3209 6.064C27.1049 6.432 27.7289 6.928 28.1929 7.552V1.24H31.6009V19H28.1929V17.032C27.7769 17.688 27.1929 18.216 26.4409 18.616C25.6889 19.016 24.8169 19.216 23.8249 19.216C22.7049 19.216 21.6809 18.928 20.7529 18.352C19.8249 17.776 19.0889 16.968 18.5449 15.928C18.0169 14.872 17.7529 13.664 17.7529 12.304ZM28.2169 12.352C28.2169 11.536 28.0569 10.84 27.7369 10.264C27.4169 9.672 26.9849 9.224 26.4409 8.92C25.8969 8.6 25.3129 8.44 24.6889 8.44C24.0649 8.44 23.4889 8.592 22.9609 8.896C22.4329 9.2 22.0009 9.648 21.6649 10.24C21.3449 10.816 21.1849 11.504 21.1849 12.304C21.1849 13.104 21.3449 13.808 21.6649 14.416C22.0009 15.008 22.4329 15.464 22.9609 15.784C23.5049 16.104 24.0809 16.264 24.6889 16.264C25.3129 16.264 25.8969 16.112 26.4409 15.808C26.9849 15.488 27.4169 15.04 27.7369 14.464C28.0569 13.872 28.2169 13.168 28.2169 12.352ZM34.0186 12.304C34.0186 10.96 34.2826 9.768 34.8106 8.728C35.3546 7.688 36.0826 6.888 36.9946 6.328C37.9226 5.768 38.9546 5.488 40.0906 5.488C41.0826 5.488 41.9466 5.688 42.6826 6.088C43.4346 6.488 44.0346 6.992 44.4826 7.6V5.704H47.8666V19H44.4826V17.056C44.0506 17.68 43.4506 18.2 42.6826 18.616C41.9306 19.016 41.0586 19.216 40.0666 19.216C38.9466 19.216 37.9226 18.928 36.9946 18.352C36.0826 17.776 35.3546 16.968 34.8106 15.928C34.2826 14.872 34.0186 13.664 34.0186 12.304ZM44.4826 12.352C44.4826 11.536 44.3226 10.84 44.0026 10.264C43.6826 9.672 43.2506 9.224 42.7066 8.92C42.1626 8.6 41.5786 8.44 40.9546 8.44C40.3306 8.44 39.7546 8.592 39.2266 8.896C38.6986 9.2 38.2666 9.648 37.9306 10.24C37.6106 10.816 37.4506 11.504 37.4506 12.304C37.4506 13.104 37.6106 13.808 37.9306 14.416C38.2666 15.008 38.6986 15.464 39.2266 15.784C39.7706 16.104 40.3466 16.264 40.9546 16.264C41.5786 16.264 42.1626 16.112 42.7066 15.808C43.2506 15.488 43.6826 15.04 44.0026 14.464C44.3226 13.872 44.4826 13.168 44.4826 12.352ZM58.5162 5.512C60.1002 5.512 61.3802 6.016 62.3562 7.024C63.3322 8.016 63.8202 9.408 63.8202 11.2V19H60.4602V11.656C60.4602 10.6 60.1962 9.792 59.6682 9.232C59.1402 8.656 58.4202 8.368 57.5082 8.368C56.5802 8.368 55.8442 8.656 55.3002 9.232C54.7722 9.792 54.5082 10.6 54.5082 11.656V19H51.1482V5.704H54.5082V7.36C54.9562 6.784 55.5242 6.336 56.2122 6.016C56.9162 5.68 57.6842 5.512 58.5162 5.512ZM68.7194 4.12C68.1274 4.12 67.6314 3.936 67.2314 3.568C66.8474 3.184 66.6554 2.712 66.6554 2.152C66.6554 1.592 66.8474 1.128 67.2314 0.759999C67.6314 0.375999 68.1274 0.183999 68.7194 0.183999C69.3114 0.183999 69.7994 0.375999 70.1834 0.759999C70.5834 1.128 70.7834 1.592 70.7834 2.152C70.7834 2.712 70.5834 3.184 70.1834 3.568C69.7994 3.936 69.3114 4.12 68.7194 4.12ZM70.3754 5.704V19H67.0154V5.704H70.3754ZM86.0551 12.064C86.0551 12.544 86.0231 12.976 85.9591 13.36H76.2391C76.3191 14.32 76.6551 15.072 77.2471 15.616C77.8391 16.16 78.5671 16.432 79.4311 16.432C80.6791 16.432 81.5671 15.896 82.0951 14.824H85.7191C85.3351 16.104 84.5991 17.16 83.5111 17.992C82.4231 18.808 81.0871 19.216 79.5031 19.216C78.2231 19.216 77.0711 18.936 76.0471 18.376C75.0391 17.8 74.2471 16.992 73.6711 15.952C73.1111 14.912 72.8311 13.712 72.8311 12.352C72.8311 10.976 73.1111 9.768 73.6711 8.728C74.2311 7.688 75.0151 6.888 76.0231 6.328C77.0311 5.768 78.1911 5.488 79.5031 5.488C80.7671 5.488 81.8951 5.76 82.8871 6.304C83.8951 6.848 84.6711 7.624 85.2151 8.632C85.7751 9.624 86.0551 10.768 86.0551 12.064ZM82.5751 11.104C82.5591 10.24 82.2471 9.552 81.6391 9.04C81.0311 8.512 80.2871 8.248 79.4071 8.248C78.5751 8.248 77.8711 8.504 77.2951 9.016C76.7351 9.512 76.3911 10.208 76.2631 11.104H82.5751ZM91.8676 1.24V19H88.5076V1.24H91.8676Z" fill="white"/>
<path d="M100.035 19.216C99.0273 19.216 98.1233 19.048 97.3233 18.712C96.5233 18.36 95.8913 17.88 95.4273 17.272C94.9633 16.648 94.7073 15.936 94.6593 15.136H96.9153C96.9793 15.792 97.2833 16.328 97.8273 16.744C98.3873 17.16 99.1153 17.368 100.011 17.368C100.843 17.368 101.499 17.184 101.979 16.816C102.459 16.448 102.699 15.984 102.699 15.424C102.699 14.848 102.443 14.424 101.931 14.152C101.419 13.864 100.627 13.584 99.5553 13.312C98.5793 13.056 97.7793 12.8 97.1553 12.544C96.5473 12.272 96.0193 11.88 95.5713 11.368C95.1393 10.84 94.9233 10.152 94.9233 9.304C94.9233 8.632 95.1233 8.016 95.5233 7.456C95.9233 6.896 96.4913 6.456 97.2273 6.136C97.9633 5.8 98.8033 5.632 99.7473 5.632C101.203 5.632 102.379 6 103.275 6.736C104.171 7.472 104.651 8.48 104.715 9.76H102.531C102.483 9.072 102.203 8.52 101.691 8.104C101.195 7.688 100.523 7.48 99.6753 7.48C98.8913 7.48 98.2673 7.648 97.8033 7.984C97.3393 8.32 97.1073 8.76 97.1073 9.304C97.1073 9.736 97.2433 10.096 97.5153 10.384C97.8033 10.656 98.1553 10.88 98.5713 11.056C99.0033 11.216 99.5953 11.4 100.347 11.608C101.291 11.864 102.059 12.12 102.651 12.376C103.243 12.616 103.747 12.984 104.163 13.48C104.595 13.976 104.819 14.624 104.835 15.424C104.835 16.144 104.635 16.792 104.235 17.368C103.835 17.944 103.267 18.4 102.531 18.736C101.811 19.056 100.979 19.216 100.035 19.216ZM109.046 3.712C108.63 3.712 108.278 3.568 107.99 3.28C107.702 2.992 107.558 2.64 107.558 2.224C107.558 1.808 107.702 1.456 107.99 1.168C108.278 0.879999 108.63 0.735999 109.046 0.735999C109.446 0.735999 109.782 0.879999 110.054 1.168C110.342 1.456 110.486 1.808 110.486 2.224C110.486 2.64 110.342 2.992 110.054 3.28C109.782 3.568 109.446 3.712 109.046 3.712ZM110.102 5.848V19H107.918V5.848H110.102ZM116.009 1.24V19H113.825V1.24H116.009ZM124.627 16.984L128.707 5.848H131.035L125.875 19H123.331L118.171 5.848H120.523L124.627 16.984ZM132.368 12.376C132.368 11.032 132.64 9.856 133.184 8.848C133.728 7.824 134.472 7.032 135.416 6.472C136.376 5.912 137.44 5.632 138.608 5.632C139.76 5.632 140.76 5.88 141.608 6.376C142.456 6.872 143.088 7.496 143.504 8.248V5.848H145.712V19H143.504V16.552C143.072 17.32 142.424 17.96 141.56 18.472C140.712 18.968 139.72 19.216 138.584 19.216C137.416 19.216 136.36 18.928 135.416 18.352C134.472 17.776 133.728 16.968 133.184 15.928C132.64 14.888 132.368 13.704 132.368 12.376ZM143.504 12.4C143.504 11.408 143.304 10.544 142.904 9.808C142.504 9.072 141.96 8.512 141.272 8.128C140.6 7.728 139.856 7.528 139.04 7.528C138.224 7.528 137.48 7.72 136.808 8.104C136.136 8.488 135.6 9.048 135.2 9.784C134.8 10.52 134.6 11.384 134.6 12.376C134.6 13.384 134.8 14.264 135.2 15.016C135.6 15.752 136.136 16.32 136.808 16.72C137.48 17.104 138.224 17.296 139.04 17.296C139.856 17.296 140.6 17.104 141.272 16.72C141.96 16.32 142.504 15.752 142.904 15.016C143.304 14.264 143.504 13.392 143.504 12.4ZM150.099 19.144C149.683 19.144 149.331 19 149.043 18.712C148.755 18.424 148.611 18.072 148.611 17.656C148.611 17.24 148.755 16.888 149.043 16.6C149.331 16.312 149.683 16.168 150.099 16.168C150.499 16.168 150.835 16.312 151.107 16.6C151.395 16.888 151.539 17.24 151.539 17.656C151.539 18.072 151.395 18.424 151.107 18.712C150.835 19 150.499 19.144 150.099 19.144Z" fill="#6EF3A5"/>
</svg>
