<svg width="146" height="46" viewBox="0 0 146 46" fill="none" xmlns="http://www.w3.org/2000/svg">
<path d="M46 46H0V0H46V46ZM9.2 9.2V15.6345L31.1181 36.8H36.8V30.4092L14.8368 9.2H9.2ZM9.2 24.587V36.8H21.8454L9.2 24.587ZM24.1081 9.2L36.8 21.4558V9.2H24.1081Z" fill="#00FF99"/>
<path d="M63.44 25.72V19.48H67.112C69.784 19.48 71.12 20.52 71.12 22.6C71.12 24.68 69.784 25.72 67.112 25.72H63.44ZM57.2 14.2V31H67.112C70.52 31 73.096 30.256 74.84 28.768C76.52 27.344 77.36 25.288 77.36 22.6C77.36 19.912 76.52 17.856 74.84 16.432C73.096 14.944 70.52 14.2 67.112 14.2H57.2ZM93.5609 14.2V23.2L86.3609 14.2H79.1609V31H85.4009V22L92.6009 31H99.8009V14.2H93.5609ZM111.686 24.64C113.35 24.688 114.446 24.808 114.974 25C115.326 25.128 115.502 25.352 115.502 25.672C115.502 25.96 115.318 26.152 114.95 26.248C114.454 26.376 113.366 26.44 111.686 26.44C109.958 26.44 108.846 26.352 108.35 26.176C107.854 26.016 107.606 25.664 107.606 25.12H101.366C101.366 27.2 102.094 28.712 103.55 29.656C105.166 30.712 107.878 31.24 111.686 31.24C115.478 31.24 118.19 30.76 119.822 29.8C121.278 28.936 122.006 27.6 122.006 25.792C122.006 23.92 121.374 22.608 120.11 21.856C118.654 20.992 115.846 20.48 111.686 20.32C109.958 20.256 108.87 20.176 108.422 20.08C108.07 19.984 107.894 19.8 107.894 19.528C107.894 19.24 108.07 19.048 108.422 18.952C108.918 18.824 110.006 18.76 111.686 18.76C113.222 18.76 114.238 18.848 114.734 19.024C115.246 19.184 115.502 19.536 115.502 20.08H121.742C121.742 17.984 121.054 16.472 119.678 15.544C118.142 14.488 115.478 13.96 111.686 13.96C107.878 13.96 105.166 14.416 103.55 15.328C102.094 16.16 101.366 17.472 101.366 19.264C101.366 21.136 101.99 22.432 103.238 23.152C104.694 24.016 107.51 24.512 111.686 24.64ZM139.181 14.2L133.901 26.512L128.621 14.2H122.141L129.341 31H138.461L145.661 14.2H139.181Z" fill="white"/>
</svg>
