<svg width="271" height="54" fill="none" xmlns="http://www.w3.org/2000/svg"><path d="M54 54H0V0h54v54ZM10.8 10.8v7.553L36.53 43.2h6.67v-7.502L17.417 10.8H10.8Zm0 18.063V43.2h14.845L10.8 28.863ZM28.3 10.8l14.9 14.387V10.8H28.3Z" fill="#0F9"/><path d="M76.44 29.72v-6.24h3.672c2.672 0 4.008 1.04 4.008 3.12s-1.336 3.12-4.008 3.12H76.44ZM70.2 18.2V35h9.912c3.408 0 5.984-.744 7.728-2.232 1.68-1.424 2.52-3.48 2.52-6.168s-.84-4.744-2.52-6.168c-1.744-1.488-4.32-2.232-7.728-2.232H70.2Zm26.531 0-7.2 16.8h6.48l1.224-2.88h8.112l1.224 2.88h6.48l-7.2-16.8h-9.12Zm4.56 4.488 2.184 5.112h-4.368l2.184-5.112Zm27.372-4.488v9l-7.2-9h-7.2V35h6.24v-9l7.2 9h7.2V18.2h-6.24Zm8.639 16.8h6.24V18.2h-6.24V35Zm8.648-16.8V35h17.76v-4.8h-11.52v-1.44h11.28v-4.32h-11.28V23h11.52v-4.8h-17.76Zm19.57 0V35h15.84v-5.28h-9.6V18.2h-6.24Zm26.994 10.44c1.664.048 2.76.168 3.288.36.352.128.528.352.528.672 0 .288-.184.48-.552.576-.496.128-1.584.192-3.264.192-1.728 0-2.84-.088-3.336-.264-.496-.16-.744-.512-.744-1.056h-6.24c0 2.08.728 3.592 2.184 4.536 1.616 1.056 4.328 1.584 8.136 1.584 3.792 0 6.504-.48 8.136-1.44 1.456-.864 2.184-2.2 2.184-4.008 0-1.872-.632-3.184-1.896-3.936-1.456-.864-4.264-1.376-8.424-1.536-1.728-.064-2.816-.144-3.264-.24-.352-.096-.528-.28-.528-.552 0-.288.176-.48.528-.576.496-.128 1.584-.192 3.264-.192 1.536 0 2.552.088 3.048.264.512.16.768.512.768 1.056h6.24c0-2.096-.688-3.608-2.064-4.536-1.536-1.056-4.2-1.584-7.992-1.584-3.808 0-6.52.456-8.136 1.368-1.456.832-2.184 2.144-2.184 3.936 0 1.872.624 3.168 1.872 3.888 1.456.864 4.272 1.36 8.448 1.488ZM204.52 35h6.24V18.2h-6.24V35Zm8.649-16.8V35h15.84v-5.28h-9.6V18.2h-6.24Zm30.23 0-5.28 12.312-5.28-12.312h-6.48l7.2 16.8h9.12l7.2-16.8h-6.48Zm10.34 0-7.2 16.8h6.48l1.224-2.88h8.112l1.224 2.88h6.48l-7.2-16.8h-9.12Zm4.56 4.488 2.184 5.112h-4.368l2.184-5.112Z" fill="#fff"/></svg>