<svg width="72" height="72" fill="none" xmlns="http://www.w3.org/2000/svg"><circle opacity=".15" cx="51" cy="20" r="20" fill="#0F9"/><g clip-path="url(#a)" fill="#0F9"><path d="M1.787 64.752a.787.787 0 1 0 0-1.573.787.787 0 0 0 0 1.573ZM5.328 63.179h-1.18a.787.787 0 1 0 0 1.573h1.18a.787.787 0 1 0 0-1.573Zm58.623 0h-1.18a.787.787 0 0 0 0 1.573h1.18a.787.787 0 1 0 0-1.573ZM66.311 64.752a.787.787 0 1 0 0-1.573.787.787 0 0 0 0 1.573ZM47.487 66.326h-3.269a.79.79 0 0 0 0 1.574h3.269a.79.79 0 0 0 0-1.574Zm-23.607 0h-3.268a.79.79 0 0 0 0 1.574h3.268a.79.79 0 0 0 0-1.574Zm18.038 0H26.18a.787.787 0 0 0 0 1.574h6.272v.787h-3.124a.787.787 0 1 0 0 1.574h9.836a.787.787 0 1 0 0-1.574h-3.517V67.9h6.271a.787.787 0 1 0 0-1.574ZM60.3 63.179H36.378l2.29-4.328 3.148-5.512a.751.751 0 0 0 .09-.468v-.547a20.194 20.194 0 0 1 4.75-12.807A15.357 15.357 0 0 0 41.63 15.99a15.355 15.355 0 0 0-21.768 10.245 2.359 2.359 0 1 0 1.558.256 13.784 13.784 0 0 1 24.313-5.19 13.786 13.786 0 0 1-.29 17.21 21.796 21.796 0 0 0-5.107 13.652H29.328a22.935 22.935 0 0 0-4.887-13.86.788.788 0 0 0-1.243.967 21.332 21.332 0 0 1 4.556 13.047v.432a.777.777 0 0 0 .185.732l3.053 5.347 2.302 4.352H7.799a.793.793 0 1 0 0 1.573h52.5a.794.794 0 1 0 0-1.573ZM20.279 29.343a.787.787 0 1 1 0-1.574.787.787 0 0 1 0 1.574Zm12.299 29.114-.205-.385-2.475-4.336h9.876l-2.487 4.356-.193.365h-4.516Zm2.258 4.273-1.428-2.699h2.856l-1.428 2.7Z"/><path d="M37.244 31.408c-.661-1.456-1.078-2.44-1.24-3.722a41.329 41.329 0 0 1-.066-1.38.785.785 0 0 0-.378-.785.796.796 0 0 0-.594-.09c-2.306.335-4.328 3.746-4.564 4.163-1.971 3.71.85 7.598 1.692 8.625l.732 13.943h1.577L33.7 38.785h2.274l-.704 13.377h1.578l.743-14.12c0-.012-.004-.02-.004-.028 1.857-2.475-.102-6.173-.342-6.606Zm-1.027 5.8-2.95-.044c-.72-.9-2.956-4.048-1.488-6.81.55-.956 1.61-2.369 2.6-3.022.016.165.036.342.06.535.196 1.527.676 2.664 1.385 4.222.011.023.023.047.035.067.02.035 1.837 3.332.358 5.052ZM53.131 22.623a1.18 1.18 0 1 0 0-2.36 1.18 1.18 0 0 0 0 2.36Zm0-1.77a.59.59 0 1 1 0 1.18.59.59 0 0 1 0-1.18Zm11.607 3.437a.787.787 0 1 0 0 1.574.787.787 0 0 0 0-1.574Zm0 1.18a.394.394 0 1 1 0-.787.394.394 0 0 1 0 .788ZM52.934 36.42a.786.786 0 1 0 0 1.574.786.786 0 0 0 0-1.573Zm0 1.181a.393.393 0 1 1 0-.787.393.393 0 0 1 0 .787Zm5.77-32.32a.787.787 0 1 0 0 1.573.787.787 0 0 0 0-1.574Zm0 1.18a.394.394 0 1 1 0-.787.394.394 0 0 1 0 .787ZM6.903 26.65a.787.787 0 1 0-1.574 0 .787.787 0 0 0 1.574 0Zm-1.18 0a.393.393 0 1 1 .786 0 .393.393 0 0 1-.787 0ZM4.191 10.359l.585-.77-.37-.209-.375.862h-.013l-.38-.856-.377.216.58.75v.013l-.906-.117v.419l.911-.117v.012l-.585.751.351.222.4-.868h.013l.37.861.387-.221-.59-.74v-.011l.929.11v-.418l-.93.123v-.012ZM19.387 17.112l-.337.432.203.128.23-.5h.007l.213.496.223-.128-.34-.425v-.007l.535.064v-.241l-.535.07v-.006l.337-.443-.213-.121-.216.496h-.007l-.22-.492-.217.123.334.433v.007l-.521-.067v.24l.524-.066v.007ZM46.33 11.74v-.41l-.91.12v-.012l.573-.755-.362-.205-.369.845h-.012l-.374-.84-.369.212.568.737v.012l-.888-.115v.411l.894-.115v.012l-.574.737.344.217.393-.851h.012l.362.845.38-.217-.579-.725v-.012l.912.109ZM30.036 6.895l.495-.65-.312-.178-.318.73h-.01l-.323-.725-.318.183.49.635v.01l-.766-.099v.355l.77-.1v.011l-.494.635.297.188.339-.734h.01l.312.729.329-.188-.5-.625v-.01l.786.094V6.8l-.787.105v-.01Z"/></g><defs><clipPath id="a"><path fill="#fff" transform="translate(1 4.721)" d="M0 0h66.098v66.098H0z"/></clipPath></defs></svg>