<svg width="72" height="73" viewBox="0 0 72 73" fill="none" xmlns="http://www.w3.org/2000/svg">
<circle opacity="0.15" cx="51" cy="20" r="20" fill="#00FF99"/>
<path d="M19.2045 12H11.8409V19.3637H19.2045V12Z" stroke="#00FF99" stroke-width="1.5" stroke-miterlimit="10" stroke-linecap="round" stroke-linejoin="round"/>
<path d="M59.7045 52.5H52.3409V59.8637H59.7045V52.5Z" stroke="#00FF99" stroke-width="1.5" stroke-miterlimit="10" stroke-linecap="round" stroke-linejoin="round"/>
<path d="M39.4545 32.25H32.0909V39.6137H39.4545V32.25Z" stroke="#00FF99" stroke-width="1.5" stroke-miterlimit="10" stroke-linecap="round" stroke-linejoin="round"/>
<path d="M10 35.9319H32.0909" stroke="#00FF99" stroke-width="1.5" stroke-miterlimit="10" stroke-linecap="round" stroke-linejoin="round"/>
<path d="M39.4545 35.9319H61.5455" stroke="#00FF99" stroke-width="1.5" stroke-miterlimit="10" stroke-linecap="round" stroke-linejoin="round"/>
<path d="M32.0909 35.5637C23.8068 34.0909 17.3636 27.6478 15.8909 19.3637" stroke="#00FF99" stroke-width="1.5" stroke-miterlimit="10" stroke-linecap="round" stroke-linejoin="round"/>
<path d="M39.4545 36.3C47.7386 37.7727 54.1818 44.2159 55.6545 52.5" stroke="#00FF99" stroke-width="1.5" stroke-miterlimit="10" stroke-linecap="round" stroke-linejoin="round"/>
<path d="M2.78689 66.5738C3.22147 66.5738 3.57377 66.2215 3.57377 65.7869C3.57377 65.3523 3.22147 65 2.78689 65C2.3523 65 2 65.3523 2 65.7869C2 66.2215 2.3523 66.5738 2.78689 66.5738Z" fill="#00FF99"/>
<path d="M6.32787 65.0001H5.14754C4.93885 65.0001 4.7387 65.083 4.59113 65.2306C4.44356 65.3781 4.36066 65.5783 4.36066 65.787C4.36066 65.9957 4.44356 66.1958 4.59113 66.3434C4.7387 66.491 4.93885 66.5739 5.14754 66.5739H6.32787C6.53657 66.5739 6.73671 66.491 6.88428 66.3434C7.03185 66.1958 7.11476 65.9957 7.11476 65.787C7.11476 65.5783 7.03185 65.3781 6.88428 65.2306C6.73671 65.083 6.53657 65.0001 6.32787 65.0001ZM64.9508 65.0001H63.7705C63.5618 65.0001 63.3617 65.083 63.2141 65.2306C63.0665 65.3781 62.9836 65.5783 62.9836 65.787C62.9836 65.9957 63.0665 66.1958 63.2141 66.3434C63.3617 66.491 63.5618 66.5739 63.7705 66.5739H64.9508C65.1595 66.5739 65.3597 66.491 65.5072 66.3434C65.6548 66.1958 65.7377 65.9957 65.7377 65.787C65.7377 65.5783 65.6548 65.3781 65.5072 65.2306C65.3597 65.083 65.1595 65.0001 64.9508 65.0001Z" fill="#00FF99"/>
<path d="M67.3115 66.5738C67.7461 66.5738 68.0984 66.2215 68.0984 65.7869C68.0984 65.3523 67.7461 65 67.3115 65C66.8769 65 66.5246 65.3523 66.5246 65.7869C66.5246 66.2215 66.8769 66.5738 67.3115 66.5738Z" fill="#00FF99"/>
<path d="M48.4868 68.1476H45.2182C45.0203 68.1635 44.8358 68.2532 44.7011 68.3991C44.5665 68.5449 44.4918 68.736 44.4918 68.9345C44.4918 69.1329 44.5665 69.3241 44.7011 69.4699C44.8358 69.6158 45.0203 69.7055 45.2182 69.7214H48.4868C48.6846 69.7055 48.8692 69.6158 49.0038 69.4699C49.1384 69.3241 49.2131 69.1329 49.2131 68.9345C49.2131 68.736 49.1384 68.5449 49.0038 68.3991C48.8692 68.2532 48.6846 68.1635 48.4868 68.1476ZM24.8802 68.1476H21.6116C21.4138 68.1635 21.2292 68.2532 21.0946 68.3991C20.96 68.5449 20.8853 68.736 20.8853 68.9345C20.8853 69.1329 20.96 69.3241 21.0946 69.4699C21.2292 69.6158 21.4138 69.7055 21.6116 69.7214H24.8802C25.078 69.7055 25.2626 69.6158 25.3972 69.4699C25.5318 69.3241 25.6066 69.1329 25.6066 68.9345C25.6066 68.736 25.5318 68.5449 25.3972 68.3991C25.2626 68.2532 25.078 68.1635 24.8802 68.1476ZM42.918 68.1476H27.1803C26.9716 68.1476 26.7715 68.2305 26.6239 68.3781C26.4764 68.5257 26.3935 68.7258 26.3935 68.9345C26.3935 69.1432 26.4764 69.3433 26.6239 69.4909C26.7715 69.6385 26.9716 69.7214 27.1803 69.7214H33.4518V70.5083H30.3279C30.1192 70.5083 29.919 70.5912 29.7715 70.7387C29.6239 70.8863 29.541 71.0865 29.541 71.2952C29.541 71.5039 29.6239 71.704 29.7715 71.8516C29.919 71.9991 30.1192 72.082 30.3279 72.082H40.1639C40.3726 72.082 40.5728 71.9991 40.7204 71.8516C40.8679 71.704 40.9508 71.5039 40.9508 71.2952C40.9508 71.0865 40.8679 70.8863 40.7204 70.7387C40.5728 70.5912 40.3726 70.5083 40.1639 70.5083H36.6466V69.7214H42.918C43.1267 69.7214 43.3269 69.6385 43.4745 69.4909C43.622 69.3433 43.7049 69.1432 43.7049 68.9345C43.7049 68.7258 43.622 68.5257 43.4745 68.3781C43.3269 68.2305 43.1267 68.1476 42.918 68.1476Z" fill="#00FF99"/>
<path d="M55.1962 25.3426C55.4297 25.3426 55.6579 25.2734 55.852 25.1437C56.0461 25.014 56.1974 24.8297 56.2867 24.614C56.376 24.3983 56.3994 24.161 56.3539 23.932C56.3083 23.7031 56.1959 23.4928 56.0308 23.3277C55.8658 23.1626 55.6555 23.0502 55.4265 23.0047C55.1975 22.9591 54.9602 22.9825 54.7445 23.0718C54.5289 23.1612 54.3445 23.3124 54.2148 23.5065C54.0851 23.7007 54.0159 23.9289 54.0159 24.1623C54.0163 24.4752 54.1407 24.7752 54.362 24.9965C54.5833 25.2178 54.8833 25.3423 55.1962 25.3426ZM55.1962 23.5721C55.3129 23.5721 55.4271 23.6068 55.5241 23.6716C55.6212 23.7364 55.6968 23.8286 55.7415 23.9365C55.7861 24.0443 55.7978 24.163 55.775 24.2774C55.7523 24.3919 55.6961 24.4971 55.6135 24.5796C55.531 24.6621 55.4258 24.7184 55.3114 24.7411C55.1969 24.7639 55.0782 24.7522 54.9704 24.7075C54.8625 24.6629 54.7704 24.5872 54.7055 24.4902C54.6407 24.3931 54.6061 24.279 54.6061 24.1623C54.6062 24.0058 54.6684 23.8558 54.7791 23.7452C54.8897 23.6345 55.0397 23.5723 55.1962 23.5721ZM66.8028 27.0099C66.6472 27.0099 66.495 27.056 66.3656 27.1425C66.2362 27.2289 66.1353 27.3518 66.0758 27.4956C66.0162 27.6394 66.0007 27.7976 66.031 27.9503C66.0614 28.1029 66.1363 28.2431 66.2464 28.3532C66.3564 28.4632 66.4966 28.5382 66.6493 28.5685C66.8019 28.5989 66.9601 28.5833 67.1039 28.5237C67.2477 28.4642 67.3706 28.3633 67.4571 28.2339C67.5435 28.1045 67.5897 27.9524 67.5897 27.7967C67.5894 27.5881 67.5064 27.3881 67.3589 27.2406C67.2114 27.0931 67.0114 27.0101 66.8028 27.0099ZM66.8028 28.1902C66.725 28.1902 66.6489 28.1671 66.5842 28.1239C66.5195 28.0807 66.4691 28.0192 66.4393 27.9473C66.4095 27.8754 66.4017 27.7963 66.4169 27.72C66.4321 27.6437 66.4696 27.5736 66.5246 27.5185C66.5796 27.4635 66.6497 27.426 66.726 27.4109C66.8023 27.3957 66.8815 27.4035 66.9534 27.4333C67.0252 27.463 67.0867 27.5135 67.1299 27.5782C67.1731 27.6429 67.1962 27.7189 67.1962 27.7967C67.1961 27.9011 67.1546 28.0011 67.0809 28.0748C67.0071 28.1486 66.9071 28.1901 66.8028 28.1902ZM54.9995 39.1403C54.8439 39.1403 54.6917 39.1865 54.5623 39.2729C54.4329 39.3594 54.3321 39.4823 54.2725 39.6261C54.213 39.7699 54.1974 39.9281 54.2277 40.0807C54.2581 40.2334 54.333 40.3736 54.4431 40.4836C54.5531 40.5937 54.6933 40.6686 54.846 40.699C54.9986 40.7293 55.1568 40.7138 55.3006 40.6542C55.4444 40.5947 55.5673 40.4938 55.6538 40.3644C55.7402 40.235 55.7864 40.0829 55.7864 39.9272C55.7861 39.7186 55.7032 39.5186 55.5557 39.3711C55.4081 39.2236 55.2081 39.1406 54.9995 39.1403ZM54.9995 40.3207C54.9217 40.3207 54.8456 40.2976 54.7809 40.2544C54.7162 40.2111 54.6658 40.1497 54.636 40.0778C54.6062 40.0059 54.5984 39.9268 54.6136 39.8505C54.6288 39.7741 54.6663 39.704 54.7213 39.649C54.7763 39.594 54.8464 39.5565 54.9227 39.5413C54.9991 39.5262 55.0782 39.5339 55.1501 39.5637C55.222 39.5935 55.2834 39.6439 55.3266 39.7086C55.3699 39.7733 55.3929 39.8494 55.3929 39.9272C55.3928 40.0315 55.3514 40.1315 55.2776 40.2053C55.2038 40.2791 55.1038 40.3206 54.9995 40.3207ZM60.77 8C60.6144 8 60.4622 8.04615 60.3328 8.13261C60.2034 8.21908 60.1026 8.34197 60.043 8.48576C59.9835 8.62954 59.9679 8.78776 59.9982 8.9404C60.0286 9.09304 60.1035 9.23325 60.2136 9.3433C60.3236 9.45334 60.4638 9.52829 60.6165 9.55865C60.7691 9.58901 60.9273 9.57343 61.0711 9.51387C61.2149 9.45431 61.3378 9.35346 61.4243 9.22406C61.5107 9.09465 61.5569 8.94252 61.5569 8.78689C61.5566 8.57826 61.4737 8.37825 61.3261 8.23074C61.1786 8.08322 60.9786 8.00024 60.77 8ZM60.77 9.18033C60.6922 9.18033 60.6161 9.15725 60.5514 9.11402C60.4867 9.07079 60.4363 9.00934 60.4065 8.93745C60.3767 8.86556 60.3689 8.78645 60.3841 8.71013C60.3993 8.63381 60.4368 8.5637 60.4918 8.50868C60.5468 8.45366 60.6169 8.41618 60.6932 8.401C60.7696 8.38582 60.8487 8.39361 60.9206 8.42339C60.9925 8.45317 61.0539 8.5036 61.0971 8.5683C61.1404 8.633 61.1634 8.70907 61.1634 8.78689C61.1633 8.8912 61.1219 8.99121 61.0481 9.06498C60.9743 9.13874 60.8743 9.18022 60.77 9.18033ZM8.96672 29.3705C8.96672 29.2149 8.92057 29.0628 8.8341 28.9333C8.74764 28.8039 8.62474 28.7031 8.48096 28.6435C8.33717 28.584 8.17896 28.5684 8.02632 28.5988C7.87368 28.6291 7.73347 28.7041 7.62342 28.8141C7.51337 28.9242 7.43843 29.0644 7.40806 29.217C7.3777 29.3696 7.39329 29.5279 7.45284 29.6716C7.5124 29.8154 7.61326 29.9383 7.74266 30.0248C7.87206 30.1113 8.0242 30.1574 8.17983 30.1574C8.38845 30.1572 8.58846 30.0742 8.73598 29.9267C8.8835 29.7791 8.96648 29.5791 8.96672 29.3705ZM7.78639 29.3705C7.78639 29.2927 7.80946 29.2166 7.85269 29.1519C7.89593 29.0872 7.95737 29.0368 8.02927 29.007C8.10116 28.9772 8.18027 28.9695 8.25659 28.9846C8.33291 28.9998 8.40301 29.0373 8.45804 29.0923C8.51306 29.1473 8.55053 29.2174 8.56571 29.2938C8.58089 29.3701 8.5731 29.4492 8.54332 29.5211C8.51354 29.593 8.46312 29.6544 8.39842 29.6977C8.33371 29.7409 8.25765 29.764 8.17983 29.764C8.07551 29.7639 7.9755 29.7224 7.90174 29.6486C7.82798 29.5748 7.78649 29.4748 7.78639 29.3705Z" fill="#00FF99"/>
<path d="M6.25626 13.0786L6.84092 12.309L6.47148 12.0997L6.09613 12.9614H6.08354L5.7023 12.1056L5.32616 12.3212L5.90531 13.0723V13.0845L5 12.9677V13.3863L5.91121 13.2694V13.2816L5.32616 14.0327L5.67711 14.2542L6.07764 13.3863H6.08984L6.45928 14.2479L6.84721 14.0264L6.25626 13.2875V13.2753L7.18557 13.3863V12.9677L6.25626 13.0908V13.0786Z" fill="#00FF99"/>
<path d="M21.4522 19.8312L21.1154 20.2636L21.3176 20.3915L21.5482 19.8914H21.5553L21.7677 20.3879L21.9912 20.2601L21.6509 19.8348V19.8277L22.186 19.8914V19.6502L21.6509 19.7215V19.7144L21.9877 19.2714L21.7752 19.1506L21.5588 19.6467H21.5517L21.3322 19.1541L21.1154 19.278L21.449 19.7108V19.7179L20.9277 19.6502V19.8914L21.4522 19.8241V19.8312Z" fill="#00FF99"/>
<path d="M48.3956 14.4596V14.0488L47.4843 14.1696V14.1574L48.058 13.4028L47.6956 13.1978L47.3274 14.0429H47.3152L46.941 13.2033L46.5723 13.415L47.1401 14.1515V14.1637L46.2521 14.0488V14.4596L47.146 14.3447V14.3569L46.5723 15.0934L46.9162 15.311L47.3093 14.4596H47.3211L47.6834 15.3047L48.0639 15.0875L47.4843 14.3628V14.3506L48.3956 14.4596Z" fill="#00FF99"/>
<path d="M32.1015 9.61479L32.5965 8.96404L32.2841 8.78699L31.9666 9.51604H31.9559L31.6329 8.7921L31.315 8.97427L31.8049 9.61007V9.6203L31.0388 9.52115V9.87525L31.81 9.7765V9.78712L31.315 10.4221L31.6117 10.6098L31.9508 9.87525H31.961L32.2734 10.6047L32.6016 10.417L32.1015 9.79184V9.78161L32.888 9.87525V9.52115L32.1015 9.62541V9.61479Z" fill="#00FF99"/>
</svg>
